{"title":"Spy_Game_DVDRip_Reaper_Silently","uid":6723827,"size":1219123142,"categoryP":"video","categoryS":"movies","magnet":"?xt=urn:btih:abacbf66144a011306dd7ddc9488823bb1450114&amp;dn=Spy_Game_DVDRip_Reaper_Silently&amp;tr=udp%3A%2F%2Ftracker.openbittorrent.com%3A80&amp;tr=udp%3A%2F%2Fopen.demonii.com%3A1337&amp;tr=udp%3A%2F%2Ftracker.coppersurfer.tk%3A6969&amp;tr=udp%3A%2F%2Fexodus.desync.com%3A6969","seeders":0,"leechers":0,"uploader":"Reaper_Silently","files":1,"time":1317887218,"description":"\nCIA operative Nathan Muir (Redford) is on the brink of retirement\nwhen he finds out that his protege Tom Bishop (Pitt) has been arrested in China\nfor espionage. No stranger to the machinations of the CIA's top echelon,\nMuir hones all his skills and irreverent manner in order to find a way to free Bishop.\nAs he embarks on his mission to free Bishop, Muir recalls how he recruited and trained\nthe young rookie, at that time a sergeant in Vietnam, their turbulent times together\nas operatives and the woman who threatened their friendship.\n\n\n\nDirector:\nTony Scott\n\nWriters:\nMichael Frost Beckner, Michael Frost Beckner\n\nStars:\nRobert Redford, Brad Pitt and Catherine McCormack\n\nIMDb: http://www.imdb.com/title/tt0266987/\n\n\nGeneral\n\nFormat : AVI\nFormat/Info : Audio Video Interleave\nFile size : 1.14 GiB\nDuration : 2h 1mn\nOverall bit rate : 1 340 Kbps\nMovie name : SPY_GAME.Title1.DVDRip\nWriting application : Lavf52.33.0\n\nVideo\n\nID : 0\nFormat : AVC\nFormat/Info : Advanced Video Codec\nFormat profile : &lt;a class=&quot;__cf_email__&quot; href=&quot;/cdn-cgi/l/email-protection&quot; data-cfemail=&quot;bcfeddcfd9d0d5d2d9fcf08d928f&quot;&gt;[email&amp;#160;protected]&lt;/a&gt;&lt;script data-cfhash='f9e31' type=&quot;text/javascript&quot;&gt;\n/* &lt;![CDATA[ */!function(){try{var t=&quot;currentScript&quot;in document?document.currentScript:function(){for(var t=document.getElementsByTagName(&quot;script&quot;),e=t.length;e--;)if(t[e].getAttribute(&quot;data-cfhash&quot;))return t[e]}();if(t&amp;&amp;t.previousSibling){var e,r,n,i,c=t.previousSibling,a=c.getAttribute(&quot;data-cfemail&quot;);if(a){for(e=&quot;&quot;,r=parseInt(a.substr(0,2),16),n=2;a.length-n;n+=2)i=parseInt(a.substr(n,2),16)^r,e+=String.fromCharCode(i);e=document.createTextNode(e),c.parentNode.replaceChild(e,c)}t.parentNode.removeChild(t);}}catch(u){}}()/* ]]&gt; */&lt;/script&gt;\nFormat settings, CABAC : No\nFormat settings, ReFrames : 1 frame\nCodec ID : H264\nDuration : 2h 1mn\nBit rate : 945 Kbps\nWidth : 720 pixels\nHeight : 308 pixels\nDisplay aspect ratio : 2.35:1\nFrame rate : 25.000 fps\nColor space : YUV\nChroma subsampling : 4:2:0\nBit depth : 8 bits\nScan type : Progressive\nBits/(Pixel*Frame) : 0.170\nStream size : 820 MiB (71%)\nWriting library : x264 core 67\n\nAudio\n\nID : 1\nFormat : AC-3\nFormat/Info : Audio Coding 3\nMode extension : CM (complete main)\nCodec ID : 2000\nDuration : 2h 1mn\nBit rate mode : Constant\nBit rate : 384 Kbps\nChannel(s) : 6 channels\nChannel positions : Front: L C R, Side: L R, LFE\nSampling rate : 48.0 KHz\nBit depth : 16 bits\nCompression mode : Lossy\nStream size : 333 MiB (29%)\nAlignment : Aligned on interleaves\nInterleave, duration : 32 ms (0.80 video frame)\n\n\n\nPlease Seed.. Thank you\n\nReaper_Silently","torrent":{"xt":"urn:btih:abacbf66144a011306dd7ddc9488823bb1450114","amp;dn":"Spy_Game_DVDRip_Reaper_Silently","amp;tr":["udp%3A%2F%2Ftracker.openbittorrent.com%3A80","udp%3A%2F%2Fopen.demonii.com%3A1337","udp%3A%2F%2Ftracker.coppersurfer.tk%3A6969","udp%3A%2F%2Fexodus.desync.com%3A6969"],"infoHash":"abacbf66144a011306dd7ddc9488823bb1450114","infoHashBuffer":{"type":"Buffer","data":[171,172,191,102,20,74,1,19,6,221,125,220,148,136,130,59,177,69,1,20]},"announce":[],"urlList":[]}}